<?xml version="1.0" encoding="UTF-8" standalone="no"?>
<!DOCTYPE svg PUBLIC "-//W3C//DTD SVG 1.1//EN" "http://www.w3.org/Graphics/SVG/1.1/DTD/svg11.dtd">
<svg width="100%" height="100%" viewBox="0 0 1200 1200" version="1.1" xmlns="http://www.w3.org/2000/svg" xmlns:xlink="http://www.w3.org/1999/xlink" xml:space="preserve" xmlns:serif="http://www.serif.com/" style="fill-rule:evenodd;clip-rule:evenodd;stroke-linejoin:round;stroke-miterlimit:2;">
    <g transform="matrix(0.921375,0,0,0.921375,30.3666,63.9835)">
        <circle cx="618.243" cy="581.757" r="618.243" style="fill:rgb(242,242,242);"/>
    </g>
    <g transform="matrix(8.4817,0,0,8.4817,-2476.09,-202.293)">
        <path d="M352.058,120.601L339.911,120.601C337.704,120.601 335.914,118.812 335.914,116.604L335.914,72.578C335.914,70.371 337.704,68.582 339.911,68.582L352.058,68.582C354.266,68.582 356.055,70.371 356.055,72.578C356.055,74.786 354.266,76.575 352.058,76.575L343.908,76.575L343.908,112.607L352.058,112.607C354.266,112.607 356.055,114.397 356.055,116.604C356.055,118.812 354.266,120.601 352.058,120.601Z" style="fill:url(#_Radial1);fill-rule:nonzero;"/>
        <path d="M386.873,120.601L374.727,120.601C372.52,120.601 370.729,118.812 370.729,116.604C370.729,114.397 372.52,112.607 374.727,112.607L382.876,112.607L382.876,76.575L374.727,76.575C372.52,76.575 370.729,74.786 370.729,72.578C370.729,70.371 372.52,68.582 374.727,68.582L386.873,68.582C389.08,68.582 390.87,70.371 390.87,72.578L390.87,116.604C390.87,118.812 389.08,120.601 386.873,120.601Z" style="fill:url(#_Radial2);fill-rule:nonzero;"/>
        <path d="M411.773,98.588L411.775,98.588L411.773,98.588ZM390.553,134.438C388.524,134.438 386.786,132.899 386.581,130.837C386.362,128.647 387.956,126.695 390.142,126.466C390.271,126.451 395.773,125.776 398.375,122.02C399.938,119.763 400.221,116.614 399.216,112.66C397.387,105.463 398.042,99.779 401.165,95.763C401.495,95.338 401.841,94.949 402.196,94.591C401.841,94.234 401.495,93.844 401.165,93.42C398.042,89.404 397.387,83.719 399.216,76.522C400.226,72.548 399.935,69.388 398.351,67.127C395.716,63.369 390.217,62.724 390.162,62.718C387.966,62.499 386.362,60.541 386.581,58.345C386.8,56.149 388.758,54.546 390.954,54.764C391.327,54.801 400.139,55.751 404.896,62.54C407.877,66.792 408.572,72.159 406.963,78.491C405.789,83.107 405.967,86.573 407.476,88.513C408.999,90.472 411.746,90.595 411.773,90.595C413.98,90.595 415.77,92.384 415.77,94.591C415.77,96.784 414.005,98.564 411.817,98.588C411.682,98.593 408.945,98.727 407.438,100.718C405.964,102.667 405.8,106.115 406.963,110.691C408.572,117.023 407.877,122.39 404.896,126.643C400.139,133.431 391.327,134.381 390.954,134.418C390.819,134.432 390.686,134.438 390.553,134.438Z" style="fill:url(#_Radial3);fill-rule:nonzero;"/>
        <path d="M334.793,134.438C334.66,134.438 334.526,134.432 334.392,134.418C334.019,134.381 325.207,133.431 320.45,126.643C317.469,122.39 316.773,117.023 318.383,110.691C319.557,106.075 319.379,102.61 317.87,100.669C316.347,98.71 313.6,98.588 313.572,98.588C311.365,98.588 309.576,96.799 309.576,94.591C309.576,92.399 311.342,90.619 313.528,90.595C313.664,90.59 316.4,90.456 317.908,88.464C319.382,86.516 319.546,83.067 318.383,78.491C316.773,72.159 317.469,66.792 320.45,62.54C325.207,55.751 334.019,54.801 334.392,54.764C336.588,54.545 338.546,56.148 338.765,58.345C338.983,60.535 337.39,62.488 335.204,62.716C335.073,62.731 329.572,63.407 326.971,67.163C325.408,69.419 325.126,72.568 326.131,76.522C327.96,83.719 327.304,89.404 324.181,93.42C323.851,93.844 323.506,94.234 323.149,94.591C323.506,94.949 323.851,95.338 324.181,95.763C327.304,99.779 327.96,105.463 326.131,112.66C325.126,116.614 325.408,119.763 326.971,122.02C329.59,125.802 335.15,126.46 335.206,126.466C337.402,126.685 338.995,128.642 338.776,130.838C338.57,132.9 336.823,134.438 334.793,134.438Z" style="fill:url(#_Radial4);fill-rule:nonzero;"/>
        <path d="M368.29,85.678C368.29,88.383 366.098,90.576 363.393,90.576C360.688,90.576 358.494,88.383 358.494,85.678C358.494,82.973 360.688,80.78 363.393,80.78C366.098,80.78 368.29,82.973 368.29,85.678Z" style="fill:url(#_Radial5);fill-rule:nonzero;"/>
        <path d="M368.29,101.495C368.29,104.098 367.127,109.523 360.681,111.599C363.891,103.41 359.796,104.876 359.408,101.113C359.143,98.533 360.688,96.598 363.393,96.598C366.098,96.598 368.29,99.402 368.29,101.495Z" style="fill:url(#_Radial6);fill-rule:nonzero;"/>
    </g>
    <defs>
        <radialGradient id="_Radial1" cx="0" cy="0" r="1" gradientUnits="userSpaceOnUse" gradientTransform="matrix(50.0658,-5.55842e-14,6.85888e-14,61.7793,362.673,94.591)"><stop offset="0" style="stop-color:rgb(148,198,242);stop-opacity:1"/><stop offset="0.51" style="stop-color:rgb(112,150,192);stop-opacity:1"/><stop offset="1" style="stop-color:rgb(1,3,38);stop-opacity:1"/></radialGradient>
        <radialGradient id="_Radial2" cx="0" cy="0" r="1" gradientUnits="userSpaceOnUse" gradientTransform="matrix(50.0658,-5.55842e-14,6.85888e-14,61.7793,362.673,94.591)"><stop offset="0" style="stop-color:rgb(148,198,242);stop-opacity:1"/><stop offset="0.51" style="stop-color:rgb(112,150,192);stop-opacity:1"/><stop offset="1" style="stop-color:rgb(1,3,38);stop-opacity:1"/></radialGradient>
        <radialGradient id="_Radial3" cx="0" cy="0" r="1" gradientUnits="userSpaceOnUse" gradientTransform="matrix(50.0658,-5.55842e-14,6.85888e-14,61.7793,362.673,94.591)"><stop offset="0" style="stop-color:rgb(148,198,242);stop-opacity:1"/><stop offset="0.51" style="stop-color:rgb(112,150,192);stop-opacity:1"/><stop offset="1" style="stop-color:rgb(1,3,38);stop-opacity:1"/></radialGradient>
        <radialGradient id="_Radial4" cx="0" cy="0" r="1" gradientUnits="userSpaceOnUse" gradientTransform="matrix(50.0658,-5.55842e-14,6.85888e-14,61.7793,362.673,94.591)"><stop offset="0" style="stop-color:rgb(148,198,242);stop-opacity:1"/><stop offset="0.51" style="stop-color:rgb(112,150,192);stop-opacity:1"/><stop offset="1" style="stop-color:rgb(1,3,38);stop-opacity:1"/></radialGradient>
        <radialGradient id="_Radial5" cx="0" cy="0" r="1" gradientUnits="userSpaceOnUse" gradientTransform="matrix(50.0658,-5.55842e-14,6.85888e-14,61.7793,362.673,94.591)"><stop offset="0" style="stop-color:rgb(148,198,242);stop-opacity:1"/><stop offset="0.51" style="stop-color:rgb(112,150,192);stop-opacity:1"/><stop offset="1" style="stop-color:rgb(1,3,38);stop-opacity:1"/></radialGradient>
        <radialGradient id="_Radial6" cx="0" cy="0" r="1" gradientUnits="userSpaceOnUse" gradientTransform="matrix(50.0658,-5.55842e-14,6.85888e-14,61.7793,362.673,94.591)"><stop offset="0" style="stop-color:rgb(148,198,242);stop-opacity:1"/><stop offset="0.51" style="stop-color:rgb(112,150,192);stop-opacity:1"/><stop offset="1" style="stop-color:rgb(1,3,38);stop-opacity:1"/></radialGradient>
    </defs>
</svg>
